<svg version="1.1" viewBox="0.0 0.0 600.0 371.0" fill="none" stroke="none" stroke-linecap="square" stroke-miterlimit="10" width="600" height="371" xmlns:xlink="http://www.w3.org/1999/xlink" xmlns="http://www.w3.org/2000/svg"><path fill="#ffffff" d="M0 0L600.0 0L600.0 371.0L0 371.0L0 0Z" fill-rule="nonzero"/><path stroke="#cccccc" stroke-width="1.0" stroke-linecap="butt" d="M142.5 51.5L142.5 300.5" fill-rule="nonzero"/><path stroke="#cccccc" stroke-width="1.0" stroke-linecap="butt" d="M223.5 51.5L223.5 300.5" fill-rule="nonzero"/><path stroke="#cccccc" stroke-width="1.0" stroke-linecap="butt" d="M305.5 51.5L305.5 300.5" fill-rule="nonzero"/><path stroke="#cccccc" stroke-width="1.0" stroke-linecap="butt" d="M386.5 51.5L386.5 300.5" fill-rule="nonzero"/><path stroke="#cccccc" stroke-width="1.0" stroke-linecap="butt" d="M467.5 51.5L467.5 300.5" fill-rule="nonzero"/><path stroke="#cccccc" stroke-width="1.0" stroke-linecap="butt" d="M548.5 51.5L548.5 300.5" fill-rule="nonzero"/><path stroke="#333333" stroke-width="1.0" stroke-linecap="butt" d="M77.5 300.5L581.5 300.5" fill-rule="nonzero"/><path stroke="#cccccc" stroke-width="1.0" stroke-linecap="butt" d="M77.5 250.5L581.5 250.5" fill-rule="nonzero"/><path stroke="#cccccc" stroke-width="1.0" stroke-linecap="butt" d="M77.5 201.5L581.5 201.5" fill-rule="nonzero"/><path stroke="#cccccc" stroke-width="1.0" stroke-linecap="butt" d="M77.5 151.5L581.5 151.5" fill-rule="nonzero"/><path stroke="#cccccc" stroke-width="1.0" stroke-linecap="butt" d="M77.5 101.5L581.5 101.5" fill-rule="nonzero"/><path stroke="#cccccc" stroke-width="1.0" stroke-linecap="butt" d="M77.5 51.5L581.5 51.5" fill-rule="nonzero"/><clipPath id="id_0"><path d="M77.55 51.916668L581.45 51.916668L581.45 300.45L77.55 300.45L77.55 51.916668Z" clip-rule="nonzero"/></clipPath><path stroke="#4285f4" stroke-width="2.0" stroke-linecap="butt" clip-path="url(#id_0)" d="M77.55 197.4578L93.80484 226.57794L126.314514 236.88213L191.33388 239.73033L321.3726 240.29897L581.45 241.4303" fill-rule="nonzero"/><path stroke="#ea4335" stroke-width="2.0" stroke-linecap="butt" clip-path="url(#id_0)" d="M77.55 237.73311L93.80484 238.17749L126.314514 238.59402L191.33388 238.01843L321.3726 238.12778L581.45 239.18454" fill-rule="nonzero"/><path stroke="#fbbc04" stroke-width="2.0" stroke-linecap="butt" clip-path="url(#id_0)" d="M77.55 98.7314L93.80484 101.87087L126.314514 98.781105L191.33388 99.34776L321.3726 97.14675L581.45 100.30312" fill-rule="nonzero"/><path stroke="#34a853" stroke-width="2.0" stroke-linecap="butt" clip-path="url(#id_0)" d="M77.55 99.36069L93.80484 99.47302L126.314514 99.87167L191.33388 101.46825L321.3726 96.14566L581.45 96.88529" fill-rule="nonzero"/><path fill="#000000" fill-opacity="0.0" clip-path="url(#id_0)" d="M80.55 197.4578C80.55 199.11464 79.206856 200.4578 77.55 200.4578C75.89314 200.4578 74.55 199.11464 74.55 197.4578C74.55 195.80093 75.89314 194.4578 77.55 194.4578C79.206856 194.4578 80.55 195.80093 80.55 197.4578Z" fill-rule="nonzero"/><path fill="#000000" fill-opacity="0.0" clip-path="url(#id_0)" d="M96.80484 226.57794C96.80484 228.23479 95.46169 229.57794 93.80484 229.57794C92.14799 229.57794 90.80484 228.23479 90.80484 226.57794C90.80484 224.92108 92.14799 223.57794 93.80484 223.57794C95.46169 223.57794 96.80484 224.92108 96.80484 226.57794Z" fill-rule="nonzero"/><path fill="#000000" fill-opacity="0.0" clip-path="url(#id_0)" d="M129.31451 236.88213C129.31451 238.53899 127.97137 239.88213 126.314514 239.88213C124.65766 239.88213 123.314514 238.53899 123.314514 236.88213C123.314514 235.22528 124.65766 233.88213 126.314514 233.88213C127.97137 233.88213 129.31451 235.22528 129.31451 236.88213Z" fill-rule="nonzero"/><path fill="#000000" fill-opacity="0.0" clip-path="url(#id_0)" d="M194.33388 239.73033C194.33388 241.38718 192.99072 242.73033 191.33388 242.73033C189.67702 242.73033 188.33388 241.38718 188.33388 239.73033C188.33388 238.07347 189.67702 236.73033 191.33388 236.73033C192.99072 236.73033 194.33388 238.07347 194.33388 239.73033Z" fill-rule="nonzero"/><path fill="#000000" fill-opacity="0.0" clip-path="url(#id_0)" d="M324.3726 240.29897C324.3726 241.95583 323.02945 243.29897 321.3726 243.29897C319.71573 243.29897 318.3726 241.95583 318.3726 240.29897C318.3726 238.64212 319.71573 237.29897 321.3726 237.29897C323.02945 237.29897 324.3726 238.64212 324.3726 240.29897Z" fill-rule="nonzero"/><path fill="#000000" fill-opacity="0.0" clip-path="url(#id_0)" d="M584.45 241.4303C584.45 243.08714 583.1069 244.4303 581.45 244.4303C579.79315 244.4303 578.45 243.08714 578.45 241.4303C578.45 239.77344 579.79315 238.4303 581.45 238.4303C583.1069 238.4303 584.45 239.77344 584.45 241.4303Z" fill-rule="nonzero"/><path fill="#000000" fill-opacity="0.0" clip-path="url(#id_0)" d="M80.55 237.73311C80.55 239.38997 79.206856 240.73311 77.55 240.73311C75.89314 240.73311 74.55 239.38997 74.55 237.73311C74.55 236.07626 75.89314 234.73311 77.55 234.73311C79.206856 234.73311 80.55 236.07626 80.55 237.73311Z" fill-rule="nonzero"/><path fill="#000000" fill-opacity="0.0" clip-path="url(#id_0)" d="M96.80484 238.17749C96.80484 239.83434 95.46169 241.17749 93.80484 241.17749C92.14799 241.17749 90.80484 239.83434 90.80484 238.17749C90.80484 236.52063 92.14799 235.17749 93.80484 235.17749C95.46169 235.17749 96.80484 236.52063 96.80484 238.17749Z" fill-rule="nonzero"/><path fill="#000000" fill-opacity="0.0" clip-path="url(#id_0)" d="M129.31451 238.59402C129.31451 240.25089 127.97137 241.59402 126.314514 241.59402C124.65766 241.59402 123.314514 240.25089 123.314514 238.59402C123.314514 236.93718 124.65766 235.59402 126.314514 235.59402C127.97137 235.59402 129.31451 236.93718 129.31451 238.59402Z" fill-rule="nonzero"/><path fill="#000000" fill-opacity="0.0" clip-path="url(#id_0)" d="M194.33388 238.01843C194.33388 239.67528 192.99072 241.01843 191.33388 241.01843C189.67702 241.01843 188.33388 239.67528 188.33388 238.01843C188.33388 236.36157 189.67702 235.01843 191.33388 235.01843C192.99072 235.01843 194.33388 236.36157 194.33388 238.01843Z" fill-rule="nonzero"/><path fill="#000000" fill-opacity="0.0" clip-path="url(#id_0)" d="M324.3726 238.12778C324.3726 239.78464 323.02945 241.12778 321.3726 241.12778C319.71573 241.12778 318.3726 239.78464 318.3726 238.12778C318.3726 236.47093 319.71573 235.12778 321.3726 235.12778C323.02945 235.12778 324.3726 236.47093 324.3726 238.12778Z" fill-rule="nonzero"/><path fill="#000000" fill-opacity="0.0" clip-path="url(#id_0)" d="M584.45 239.18454C584.45 240.8414 583.1069 242.18454 581.45 242.18454C579.79315 242.18454 578.45 240.8414 578.45 239.18454C578.45 237.5277 579.79315 236.18454 581.45 236.18454C583.1069 236.18454 584.45 237.5277 584.45 239.18454Z" fill-rule="nonzero"/><path fill="#000000" fill-opacity="0.0" clip-path="url(#id_0)" d="M80.55 98.7314C80.55 100.38825 79.206856 101.7314 77.55 101.7314C75.89314 101.7314 74.55 100.38825 74.55 98.7314C74.55 97.07455 75.89314 95.7314 77.55 95.7314C79.206856 95.7314 80.55 97.07455 80.55 98.7314Z" fill-rule="nonzero"/><path fill="#000000" fill-opacity="0.0" clip-path="url(#id_0)" d="M96.80484 101.87087C96.80484 103.527725 95.46169 104.87087 93.80484 104.87087C92.14799 104.87087 90.80484 103.527725 90.80484 101.87087C90.80484 100.21402 92.14799 98.87087 93.80484 98.87087C95.46169 98.87087 96.80484 100.21402 96.80484 101.87087Z" fill-rule="nonzero"/><path fill="#000000" fill-opacity="0.0" clip-path="url(#id_0)" d="M129.31451 98.781105C129.31451 100.43796 127.97137 101.781105 126.314514 101.781105C124.65766 101.781105 123.314514 100.43796 123.314514 98.781105C123.314514 97.12425 124.65766 95.781105 126.314514 95.781105C127.97137 95.781105 129.31451 97.12425 129.31451 98.781105Z" fill-rule="nonzero"/><path fill="#000000" fill-opacity="0.0" clip-path="url(#id_0)" d="M194.33388 99.34776C194.33388 101.004616 192.99072 102.34776 191.33388 102.34776C189.67702 102.34776 188.33388 101.004616 188.33388 99.34776C188.33388 97.69091 189.67702 96.34776 191.33388 96.34776C192.99072 96.34776 194.33388 97.69091 194.33388 99.34776Z" fill-rule="nonzero"/><path fill="#000000" fill-opacity="0.0" clip-path="url(#id_0)" d="M324.3726 97.14675C324.3726 98.803604 323.02945 100.14675 321.3726 100.14675C319.71573 100.14675 318.3726 98.803604 318.3726 97.14675C318.3726 95.4899 319.71573 94.14675 321.3726 94.14675C323.02945 94.14675 324.3726 95.4899 324.3726 97.14675Z" fill-rule="nonzero"/><path fill="#000000" fill-opacity="0.0" clip-path="url(#id_0)" d="M584.45 100.30312C584.45 101.95998 583.1069 103.30312 581.45 103.30312C579.79315 103.30312 578.45 101.95998 578.45 100.30312C578.45 98.64627 579.79315 97.30312 581.45 97.30312C583.1069 97.30312 584.45 98.64627 584.45 100.30312Z" fill-rule="nonzero"/><path fill="#000000" fill-opacity="0.0" clip-path="url(#id_0)" d="M80.55 99.36069C80.55 101.01754 79.206856 102.36069 77.55 102.36069C75.89314 102.36069 74.55 101.01754 74.55 99.36069C74.55 97.703835 75.89314 96.36069 77.55 96.36069C79.206856 96.36069 80.55 97.703835 80.55 99.36069Z" fill-rule="nonzero"/><path fill="#000000" fill-opacity="0.0" clip-path="url(#id_0)" d="M96.80484 99.47302C96.80484 101.129875 95.46169 102.47302 93.80484 102.47302C92.14799 102.47302 90.80484 101.129875 90.80484 99.47302C90.80484 97.81617 92.14799 96.47302 93.80484 96.47302C95.46169 96.47302 96.80484 97.81617 96.80484 99.47302Z" fill-rule="nonzero"/><path fill="#000000" fill-opacity="0.0" clip-path="url(#id_0)" d="M129.31451 99.87167C129.31451 101.52853 127.97137 102.87167 126.314514 102.87167C124.65766 102.87167 123.314514 101.52853 123.314514 99.87167C123.314514 98.21481 124.65766 96.87167 126.314514 96.87167C127.97137 96.87167 129.31451 98.21481 129.31451 99.87167Z" fill-rule="nonzero"/><path fill="#000000" fill-opacity="0.0" clip-path="url(#id_0)" d="M194.33388 101.46825C194.33388 103.1251 192.99072 104.46825 191.33388 104.46825C189.67702 104.46825 188.33388 103.1251 188.33388 101.46825C188.33388 99.81139 189.67702 98.46825 191.33388 98.46825C192.99072 98.46825 194.33388 99.81139 194.33388 101.46825Z" fill-rule="nonzero"/><path fill="#000000" fill-opacity="0.0" clip-path="url(#id_0)" d="M324.3726 96.14566C324.3726 97.80251 323.02945 99.14566 321.3726 99.14566C319.71573 99.14566 318.3726 97.80251 318.3726 96.14566C318.3726 94.48881 319.71573 93.14566 321.3726 93.14566C323.02945 93.14566 324.3726 94.48881 324.3726 96.14566Z" fill-rule="nonzero"/><path fill="#000000" fill-opacity="0.0" clip-path="url(#id_0)" d="M584.45 96.88529C584.45 98.542145 583.1069 99.88529 581.45 99.88529C579.79315 99.88529 578.45 98.542145 578.45 96.88529C578.45 95.22844 579.79315 93.88529 581.45 93.88529C583.1069 93.88529 584.45 95.22844 584.45 96.88529Z" fill-rule="nonzero"/><path fill="#000000" d="M305.60938 349.59064L306.10938 347.10626L305.125 347.10626L305.125 346.23126L306.29688 346.23126L306.71875 344.10626L305.125 344.10626L305.125 343.23126L306.90625 343.23126L307.40625 340.71564L308.28125 340.71564L307.78125 343.23126L309.625 343.23126L310.14062 340.71564L311.01562 340.71564L310.51562 343.23126L311.51562 343.23126L311.51562 344.10626L310.32812 344.10626L309.89062 346.23126L311.51562 346.23126L311.51562 347.10626L309.71875 347.10626L309.20312 349.59064L308.32812 349.59064L308.82812 347.10626L307.0 347.10626L306.48438 349.59064L305.60938 349.59064ZM307.17188 346.23126L309.01562 346.23126L309.45312 344.10626L307.60938 344.10626L307.17188 346.23126ZM315.375 347.59064L316.40625 347.4344Q316.5 348.0594 316.89062 348.3875Q317.29688 348.71564 318.03125 348.71564Q318.75 348.71564 319.09375 348.4344Q319.45312 348.1375 319.45312 347.73126Q319.45312 347.3719 319.14062 347.16876Q318.92188 347.02814 318.0625 346.8094Q316.90625 346.5125 316.45312 346.3094Q316.01562 346.09064 315.78125 345.71564Q315.54688 345.34064 315.54688 344.8719Q315.54688 344.46564 315.73438 344.10626Q315.92188 343.7469 316.25 343.5125Q316.5 343.34064 316.92188 343.21564Q317.34375 343.09064 317.84375 343.09064Q318.5625 343.09064 319.10938 343.3094Q319.67188 343.5125 319.9375 343.8719Q320.20312 344.23126 320.29688 344.825L319.26562 344.96564Q319.20312 344.4969 318.85938 344.23126Q318.53125 343.95 317.90625 343.95Q317.1875 343.95 316.875 344.2Q316.5625 344.4344 316.5625 344.7625Q316.5625 344.96564 316.6875 345.1219Q316.82812 345.29376 317.09375 345.40314Q317.25 345.46564 318.03125 345.66876Q319.15625 345.98126 319.59375 346.16876Q320.03125 346.35626 320.28125 346.71564Q320.53125 347.075 320.53125 347.6219Q320.53125 348.15314 320.21875 348.6219Q319.92188 349.075 319.34375 349.34064Q318.76562 349.59064 318.03125 349.59064Q316.8125 349.59064 316.17188 349.09064Q315.54688 348.575 315.375 347.59064ZM322.79688 349.45L322.79688 340.85626L323.84375 340.85626L323.84375 343.9344Q324.57812 343.09064 325.70312 343.09064Q326.40625 343.09064 326.90625 343.3719Q327.42188 343.6375 327.64062 344.1219Q327.85938 344.59064 327.85938 345.5125L327.85938 349.45L326.8125 349.45L326.8125 345.5125Q326.8125 344.71564 326.46875 344.35626Q326.125 343.9969 325.5 343.9969Q325.03125 343.9969 324.60938 344.2469Q324.20312 344.48126 324.01562 344.90314Q323.84375 345.3094 323.84375 346.04376L323.84375 349.45L322.79688 349.45ZM333.85938 348.6844Q333.26562 349.1844 332.71875 349.3875Q332.1875 349.59064 331.5625 349.59064Q330.53125 349.59064 329.98438 349.09064Q329.4375 348.59064 329.4375 347.8094Q329.4375 347.35626 329.64062 346.98126Q329.84375 346.59064 330.1875 346.3719Q330.53125 346.1375 330.95312 346.02814Q331.25 345.9344 331.89062 345.85626Q333.15625 345.71564 333.76562 345.4969Q333.76562 345.27814 333.76562 345.23126Q333.76562 344.575 333.46875 344.3094Q333.0625 343.96564 332.26562 343.96564Q331.53125 343.96564 331.17188 344.23126Q330.8125 344.48126 330.64062 345.1375L329.60938 344.9969Q329.75 344.34064 330.07812 343.9344Q330.40625 343.52814 331.01562 343.3094Q331.625 343.09064 332.42188 343.09064Q333.21875 343.09064 333.71875 343.27814Q334.21875 343.46564 334.45312 343.7469Q334.6875 344.02814 334.78125 344.46564Q334.82812 344.73126 334.82812 345.4344L334.82812 346.84064Q334.82812 348.3094 334.89062 348.7Q334.96875 349.09064 335.17188 349.45L334.0625 349.45Q333.90625 349.1219 333.85938 348.6844ZM333.76562 346.325Q333.1875 346.5594 332.04688 346.73126Q331.39062 346.825 331.125 346.95Q330.85938 347.0594 330.70312 347.27814Q330.5625 347.4969 330.5625 347.77814Q330.5625 348.2 330.875 348.48126Q331.20312 348.7625 331.8125 348.7625Q332.42188 348.7625 332.89062 348.4969Q333.375 348.23126 333.59375 347.7625Q333.76562 347.40314 333.76562 346.71564L333.76562 346.325ZM336.78125 349.45L336.78125 343.23126L337.73438 343.23126L337.73438 344.16876Q338.09375 343.5125 338.39062 343.3094Q338.70312 343.09064 339.07812 343.09064Q339.60938 343.09064 340.15625 343.41876L339.79688 344.40314Q339.40625 344.16876 339.03125 344.16876Q338.67188 344.16876 338.39062 344.3875Q338.125 344.59064 338.01562 344.96564Q337.82812 345.52814 337.82812 346.1844L337.82812 349.45L336.78125 349.45ZM344.82812 349.45L344.82812 348.66876Q344.23438 349.59064 343.09375 349.59064Q342.34375 349.59064 341.71875 349.1844Q341.09375 348.7625 340.75 348.02814Q340.40625 347.29376 340.40625 346.34064Q340.40625 345.41876 340.71875 344.65314Q341.03125 343.8875 341.65625 343.4969Q342.28125 343.09064 343.04688 343.09064Q343.60938 343.09064 344.04688 343.325Q344.48438 343.5594 344.76562 343.9344L344.76562 340.85626L345.8125 340.85626L345.8125 349.45L344.82812 349.45ZM341.5 346.34064Q341.5 347.54376 342.0 348.1375Q342.5 348.71564 343.1875 348.71564Q343.875 348.71564 344.35938 348.15314Q344.84375 347.59064 344.84375 346.4344Q344.84375 345.15314 344.34375 344.5594Q343.85938 343.96564 343.14062 343.96564Q342.4375 343.96564 341.96875 344.54376Q341.5 345.10626 341.5 346.34064ZM347.375 347.59064L348.40625 347.4344Q348.5 348.0594 348.89062 348.3875Q349.29688 348.71564 350.03125 348.71564Q350.75 348.71564 351.09375 348.4344Q351.45312 348.1375 351.45312 347.73126Q351.45312 347.3719 351.14062 347.16876Q350.92188 347.02814 350.0625 346.8094Q348.90625 346.5125 348.45312 346.3094Q348.01562 346.09064 347.78125 345.71564Q347.54688 345.34064 347.54688 344.8719Q347.54688 344.46564 347.73438 344.10626Q347.92188 343.7469 348.25 343.5125Q348.5 343.34064 348.92188 343.21564Q349.34375 343.09064 349.84375 343.09064Q350.5625 343.09064 351.10938 343.3094Q351.67188 343.5125 351.9375 343.8719Q352.20312 344.23126 352.29688 344.825L351.26562 344.96564Q351.20312 344.4969 350.85938 344.23126Q350.53125 343.95 349.90625 343.95Q349.1875 343.95 348.875 344.2Q348.5625 344.4344 348.5625 344.7625Q348.5625 344.96564 348.6875 345.1219Q348.82812 345.29376 349.09375 345.40314Q349.25 345.46564 350.03125 345.66876Q351.15625 345.98126 351.59375 346.16876Q352.03125 346.35626 352.28125 346.71564Q352.53125 347.075 352.53125 347.6219Q352.53125 348.15314 352.21875 348.6219Q351.92188 349.075 351.34375 349.34064Q350.76562 349.59064 350.03125 349.59064Q348.8125 349.59064 348.17188 349.09064Q347.54688 348.575 347.375 347.59064Z" fill-rule="nonzero"/><path fill="#000000" d="M28.612513 234.08958L29.534388 233.93333Q29.628138 234.38646 29.628138 234.73021Q29.628138 235.30833 29.456263 235.62083Q29.268763 235.93333 28.971888 236.07396Q28.675013 236.19896 27.721888 236.19896L24.143763 236.19896L24.143763 236.96458L23.331263 236.96458L23.331263 236.19896L21.784388 236.19896L21.159388 235.15208L23.331263 235.15208L23.331263 234.08958L24.143763 234.08958L24.143763 235.15208L27.784388 235.15208Q28.237513 235.15208 28.362513 235.10521Q28.487513 235.04271 28.565638 234.91771Q28.643763 234.79271 28.643763 234.55833Q28.643763 234.37083 28.612513 234.08958ZM22.175013 233.38646L20.956263 233.38646L20.956263 232.32396L22.175013 232.32396L22.175013 233.38646ZM29.550013 233.38646L23.331263 233.38646L23.331263 232.32396L29.550013 232.32396L29.550013 233.38646ZM29.550013 230.38646L23.331263 230.38646L23.331263 229.44896L24.206263 229.44896Q23.737513 229.15208 23.471888 228.66771Q23.190638 228.18333 23.190638 227.55833Q23.190638 226.87083 23.471888 226.43333Q23.753138 225.98021 24.268763 225.80833Q23.190638 225.05833 23.190638 223.88646Q23.190638 222.94896 23.706263 222.46458Q24.206263 221.96458 25.284388 221.96458L29.550013 221.96458L29.550013 223.01146L25.628138 223.01146Q25.003138 223.01146 24.721888 223.12083Q24.440638 223.21458 24.268763 223.48021Q24.096888 223.74583 24.096888 224.12083Q24.096888 224.77708 24.534388 225.21458Q24.971888 225.63646 25.940638 225.63646L29.550013 225.63646L29.550013 226.69896L25.503138 226.69896Q24.800013 226.69896 24.456263 226.96458Q24.096888 227.21458 24.096888 227.79271Q24.096888 228.24583 24.331263 228.62083Q24.565638 228.99583 25.018763 229.16771Q25.471888 229.33958 26.315638 229.33958L29.550013 229.33958L29.550013 230.38646ZM27.550013 215.13646L27.675013 214.04271Q28.628138 214.29271 29.159388 214.99583Q29.690638 215.69896 29.690638 216.77708Q29.690638 218.13646 28.846888 218.94896Q28.003138 219.74583 26.487513 219.74583Q24.925013 219.74583 24.065638 218.93333Q23.190638 218.12083 23.190638 216.83958Q23.190638 215.58958 24.034388 214.80833Q24.878138 214.01146 26.425013 214.01146Q26.518763 214.01146 26.706263 214.01146L26.706263 218.65208Q27.737513 218.58958 28.284388 218.07396Q28.815638 217.55833 28.815638 216.77708Q28.815638 216.19896 28.518763 215.79271Q28.206263 215.37083 27.550013 215.13646ZM25.846888 218.58958L25.846888 215.12083Q25.050013 215.18333 24.659388 215.51146Q24.050013 216.02708 24.050013 216.82396Q24.050013 217.55833 24.534388 218.05833Q25.018763 218.54271 25.846888 218.58958ZM29.550013 209.13646L24.143763 209.13646L24.143763 210.07396L23.331263 210.07396L23.331263 209.13646L22.659388 209.13646Q22.034388 209.13646 21.737513 209.02708Q21.315638 208.87083 21.065638 208.49583Q20.815638 208.10521 20.815638 207.41771Q20.815638 206.96458 20.925013 206.43333L21.831263 206.58958Q21.784388 206.91771 21.784388 207.21458Q21.784388 207.69896 21.987513 207.90208Q22.190638 208.08958 22.753138 208.08958L23.331263 208.08958L23.331263 206.87083L24.143763 206.87083L24.143763 208.08958L29.550013 208.08958L29.550013 209.13646ZM26.440638 206.77708Q24.706263 206.77708 23.878138 205.82396Q23.190638 205.02708 23.190638 203.87083Q23.190638 202.58958 24.034388 201.77708Q24.862513 200.94896 26.346888 200.94896Q27.550013 200.94896 28.237513 201.30833Q28.925013 201.66771 29.315638 202.37083Q29.690638 203.05833 29.690638 203.87083Q29.690638 205.16771 28.862513 205.98021Q28.018763 206.77708 26.440638 206.77708ZM26.440638 205.69896Q27.628138 205.69896 28.221888 205.18333Q28.815638 204.65208 28.815638 203.87083Q28.815638 203.07396 28.221888 202.55833Q27.628138 202.04271 26.409388 202.04271Q25.253138 202.04271 24.659388 202.57396Q24.065638 203.08958 24.065638 203.87083Q24.065638 204.65208 24.659388 205.18333Q25.237513 205.69896 26.440638 205.69896ZM29.550013 199.40208L23.331263 199.40208L23.331263 198.44896L24.268763 198.44896Q23.612513 198.08958 23.409388 197.79271Q23.190638 197.48021 23.190638 197.10521Q23.190638 196.57396 23.518763 196.02708L24.503138 196.38646Q24.268763 196.77708 24.268763 197.15208Q24.268763 197.51146 24.487513 197.79271Q24.690638 198.05833 25.065638 198.16771Q25.628138 198.35521 26.284388 198.35521L29.550013 198.35521L29.550013 199.40208ZM29.550013 188.71458L29.550013 189.76146L22.831263 189.76146Q23.190638 190.15208 23.565638 190.77708Q23.925013 191.38646 24.096888 191.87083L23.081263 191.87083Q22.659388 190.99583 22.081263 190.33958Q21.487513 189.66771 20.925013 189.38646L20.925013 188.71458L29.550013 188.71458ZM25.315638 185.68333Q23.784388 185.68333 22.862513 185.37083Q21.925013 185.05833 21.425013 184.44896Q20.925013 183.82396 20.925013 182.88646Q20.925013 182.19896 21.206263 181.68333Q21.487513 181.15208 22.018763 180.80833Q22.534388 180.46458 23.284388 180.27708Q24.034388 180.08958 25.315638 180.08958Q26.831263 180.08958 27.753138 180.40208Q28.675013 180.69896 29.190638 181.32396Q29.690638 181.93333 29.690638 182.88646Q29.690638 184.12083 28.800013 184.83958Q27.737513 185.68333 25.315638 185.68333ZM25.315638 184.60521Q27.425013 184.60521 28.128138 184.10521Q28.831263 183.60521 28.831263 182.88646Q28.831263 182.15208 28.128138 181.66771Q27.425013 181.16771 25.315638 181.16771Q23.190638 181.16771 22.503138 181.66771Q21.800013 182.15208 21.800013 182.90208Q21.800013 183.62083 22.409388 184.05833Q23.190638 184.60521 25.315638 184.60521ZM25.315638 178.68333Q23.784388 178.68333 22.862513 178.37083Q21.925013 178.05833 21.425013 177.44896Q20.925013 176.82396 20.925013 175.88646Q20.925013 175.19896 21.206263 174.68333Q21.487513 174.15208 22.018763 173.80833Q22.534388 173.46458 23.284388 173.27708Q24.034388 173.08958 25.315638 173.08958Q26.831263 173.08958 27.753138 173.40208Q28.675013 173.69896 29.190638 174.32396Q29.690638 174.93333 29.690638 175.88646Q29.690638 177.12083 28.800013 177.83958Q27.737513 178.68333 25.315638 178.68333ZM25.315638 177.60521Q27.425013 177.60521 28.128138 177.10521Q28.831263 176.60521 28.831263 175.88646Q28.831263 175.15208 28.128138 174.66771Q27.425013 174.16771 25.315638 174.16771Q23.190638 174.16771 22.503138 174.66771Q21.800013 175.15208 21.800013 175.90208Q21.800013 176.62083 22.409388 177.05833Q23.190638 177.60521 25.315638 177.60521ZM26.440638 168.77708Q24.706263 168.77708 23.878138 167.82396Q23.190638 167.02708 23.190638 165.87083Q23.190638 164.58958 24.034388 163.77708Q24.862513 162.94896 26.346888 162.94896Q27.550013 162.94896 28.237513 163.30833Q28.925013 163.66771 29.315638 164.37083Q29.690638 165.05833 29.690638 165.87083Q29.690638 167.16771 28.862513 167.98021Q28.018763 168.77708 26.440638 168.77708ZM26.440638 167.69896Q27.628138 167.69896 28.221888 167.18333Q28.815638 166.65208 28.815638 165.87083Q28.815638 165.07396 28.221888 164.55833Q27.628138 164.04271 26.409388 164.04271Q25.253138 164.04271 24.659388 164.57396Q24.065638 165.08958 24.065638 165.87083Q24.065638 166.65208 24.659388 167.18333Q25.237513 167.69896 26.440638 167.69896ZM31.940638 161.38646L23.331263 161.38646L23.331263 160.43333L24.128138 160.43333Q23.659388 160.08958 23.425013 159.66771Q23.190638 159.23021 23.190638 158.62083Q23.190638 157.82396 23.596888 157.21458Q24.003138 156.60521 24.753138 156.30833Q25.503138 155.99583 26.393763 155.99583Q27.346888 155.99583 28.112513 156.33958Q28.878138 156.66771 29.284388 157.32396Q29.690638 157.98021 29.690638 158.69896Q29.690638 159.23021 29.471888 159.65208Q29.237513 160.07396 28.909388 160.33958L31.940638 160.33958L31.940638 161.38646ZM26.471888 160.43333Q27.675013 160.43333 28.253138 159.94896Q28.815638 159.46458 28.815638 158.77708Q28.815638 158.07396 28.221888 157.57396Q27.628138 157.07396 26.378138 157.07396Q25.190638 157.07396 24.612513 157.55833Q24.018763 158.04271 24.018763 158.73021Q24.018763 159.40208 24.643763 159.91771Q25.268763 160.43333 26.471888 160.43333ZM27.690638 154.80833L27.534388 153.77708Q28.159388 153.68333 28.487513 153.29271Q28.815638 152.88646 28.815638 152.15208Q28.815638 151.43333 28.534388 151.08958Q28.237513 150.73021 27.831263 150.73021Q27.471888 150.73021 27.268763 151.04271Q27.128138 151.26146 26.909388 152.12083Q26.612513 153.27708 26.409388 153.73021Q26.190638 154.16771 25.815638 154.40208Q25.440638 154.63646 24.971888 154.63646Q24.565638 154.63646 24.206263 154.44896Q23.846888 154.26146 23.612513 153.93333Q23.440638 153.68333 23.315638 153.26146Q23.190638 152.83958 23.190638 152.33958Q23.190638 151.62083 23.409388 151.07396Q23.612513 150.51146 23.971888 150.24583Q24.331263 149.98021 24.925013 149.88646L25.065638 150.91771Q24.596888 150.98021 24.331263 151.32396Q24.050013 151.65208 24.050013 152.27708Q24.050013 152.99583 24.300013 153.30833Q24.534388 153.62083 24.862513 153.62083Q25.065638 153.62083 25.221888 153.49583Q25.393763 153.35521 25.503138 153.08958Q25.565638 152.93333 25.768763 152.15208Q26.081263 151.02708 26.268763 150.58958Q26.456263 150.15208 26.815638 149.90208Q27.175013 149.65208 27.721888 149.65208Q28.253138 149.65208 28.721888 149.96458Q29.175013 150.26146 29.440638 150.83958Q29.690638 151.41771 29.690638 152.15208Q29.690638 153.37083 29.190638 154.01146Q28.675013 154.63646 27.690638 154.80833ZM29.550013 147.12083L28.346888 147.12083L28.346888 145.91771L29.550013 145.91771Q30.206263 145.91771 30.612513 146.15208Q31.034388 146.38646 31.253138 146.88646L30.800013 147.18333Q30.659388 146.85521 30.362513 146.69896Q30.081263 146.54271 29.550013 146.51146L29.550013 147.12083ZM23.331263 136.21458L29.550013 136.21458L29.550013 137.16771L28.815638 137.16771Q29.284388 137.46458 29.456263 137.76146Q29.690638 138.16771 29.690638 138.71458Q29.690638 139.19896 29.503138 139.57396Q29.362513 139.85521 28.925013 140.19896L31.940638 140.19896L31.940638 141.24583L23.331263 141.24583L23.331263 140.19896L25.956263 140.19896Q27.393763 140.19896 27.831263 140.05833Q28.253138 139.90208 28.503138 139.55833Q28.737513 139.21458 28.737513 138.76146Q28.737513 138.29271 28.487513 137.93333Q28.221888 137.55833 27.815638 137.41771Q27.409388 137.26146 25.987513 137.26146L23.331263 137.26146L23.331263 136.21458ZM27.690638 134.80833L27.534388 133.77708Q28.159388 133.68333 28.487513 133.29271Q28.815638 132.88646 28.815638 132.15208Q28.815638 131.43333 28.534388 131.08958Q28.237513 130.73021 27.831263 130.73021Q27.471888 130.73021 27.268763 131.04271Q27.128138 131.26146 26.909388 132.12083Q26.612513 133.27708 26.409388 133.73021Q26.190638 134.16771 25.815638 134.40208Q25.440638 134.63646 24.971888 134.63646Q24.565638 134.63646 24.206263 134.44896Q23.846888 134.26146 23.612513 133.93333Q23.440638 133.68333 23.315638 133.26146Q23.190638 132.83958 23.190638 132.33958Q23.190638 131.62083 23.409388 131.07396Q23.612513 130.51146 23.971888 130.24583Q24.331263 129.98021 24.925013 129.88646L25.065638 130.91771Q24.596888 130.98021 24.331263 131.32396Q24.050013 131.65208 24.050013 132.27708Q24.050013 132.99583 24.300013 133.30833Q24.534388 133.62083 24.862513 133.62083Q25.065638 133.62083 25.221888 133.49583Q25.393763 133.35521 25.503138 133.08958Q25.565638 132.93333 25.768763 132.15208Q26.081263 131.02708 26.268763 130.58958Q26.456263 130.15208 26.815638 129.90208Q27.175013 129.65208 27.721888 129.65208Q28.253138 129.65208 28.721888 129.96458Q29.175013 130.26146 29.440638 130.83958Q29.690638 131.41771 29.690638 132.15208Q29.690638 133.37083 29.190638 134.01146Q28.675013 134.63646 27.690638 134.80833Z" fill-rule="nonzero"/><path fill="#000000" d="M65.05 300.21564Q65.05 298.6844 65.3625 297.7625Q65.675 296.825 66.28438 296.325Q66.90938 295.825 67.84688 295.825Q68.53438 295.825 69.05 296.10626Q69.58125 296.3875 69.925 296.91876Q70.26875 297.4344 70.45625 298.1844Q70.64375 298.9344 70.64375 300.21564Q70.64375 301.73126 70.33125 302.65314Q70.03438 303.575 69.40938 304.09064Q68.8 304.59064 67.84688 304.59064Q66.6125 304.59064 65.89375 303.7Q65.05 302.6375 65.05 300.21564ZM66.12813 300.21564Q66.12813 302.325 66.62813 303.02814Q67.12813 303.73126 67.84688 303.73126Q68.58125 303.73126 69.06563 303.02814Q69.56563 302.325 69.56563 300.21564Q69.56563 298.09064 69.06563 297.40314Q68.58125 296.7 67.83125 296.7Q67.1125 296.7 66.675 297.3094Q66.12813 298.09064 66.12813 300.21564Z" fill-rule="nonzero"/><path fill="#000000" d="M58.05 252.49333L59.159374 252.39958Q59.284374 253.21208 59.721874 253.61833Q60.175 254.02458 60.815624 254.02458Q61.565624 254.02458 62.096874 253.44646Q62.628124 252.86833 62.628124 251.93083Q62.628124 251.02458 62.1125 250.50896Q61.6125 249.9777 60.784374 249.9777Q60.284374 249.9777 59.8625 250.21208Q59.45625 250.44646 59.221874 250.80583L58.2375 250.68083L59.065624 246.27458L63.346874 246.27458L63.346874 247.27458L59.909374 247.27458L59.45625 249.58708Q60.221874 249.0402 61.065624 249.0402Q62.190624 249.0402 62.95625 249.82146Q63.7375 250.6027 63.7375 251.83708Q63.7375 252.99333 63.065624 253.8527Q62.2375 254.88396 60.815624 254.88396Q59.64375 254.88396 58.89375 254.2277Q58.159374 253.57146 58.05 252.49333ZM65.05 250.50896Q65.05 248.9777 65.3625 248.05583Q65.675 247.11833 66.28438 246.61833Q66.90938 246.11833 67.84688 246.11833Q68.53438 246.11833 69.05 246.39958Q69.58125 246.68083 69.925 247.21208Q70.26875 247.7277 70.45625 248.4777Q70.64375 249.2277 70.64375 250.50896Q70.64375 252.02458 70.33125 252.94646Q70.03438 253.86833 69.40938 254.38396Q68.8 254.88396 67.84688 254.88396Q66.6125 254.88396 65.89375 253.99333Q65.05 252.93083 65.05 250.50896ZM66.12813 250.50896Q66.12813 252.61833 66.62813 253.32146Q67.12813 254.02458 67.84688 254.02458Q68.58125 254.02458 69.06563 253.32146Q69.56563 252.61833 69.56563 250.50896Q69.56563 248.38396 69.06563 247.69646Q68.58125 246.99333 67.83125 246.99333Q67.1125 246.99333 66.675 247.6027Q66.12813 248.38396 66.12813 250.50896Z" fill-rule="nonzero"/><path fill="#000000" d="M55.01875 205.03667L53.971874 205.03667L53.971874 198.31792Q53.58125 198.67729 52.95625 199.05229Q52.346874 199.41167 51.8625 199.58354L51.8625 198.56792Q52.7375 198.14604 53.39375 197.56792Q54.065624 196.97417 54.346874 196.41167L55.01875 196.41167L55.01875 205.03667ZM58.05 200.80229Q58.05 199.27104 58.3625 198.34917Q58.675 197.41167 59.284374 196.91167Q59.909374 196.41167 60.846874 196.41167Q61.534374 196.41167 62.05 196.69292Q62.58125 196.97417 62.925 197.50542Q63.26875 198.02104 63.45625 198.77104Q63.64375 199.52104 63.64375 200.80229Q63.64375 202.31792 63.33125 203.23979Q63.034374 204.16167 62.409374 204.67729Q61.8 205.17729 60.846874 205.17729Q59.6125 205.17729 58.89375 204.28667Q58.05 203.22417 58.05 200.80229ZM59.128124 200.80229Q59.128124 202.91167 59.628124 203.61479Q60.128124 204.31792 60.846874 204.31792Q61.58125 204.31792 62.065624 203.61479Q62.565624 202.91167 62.565624 200.80229Q62.565624 198.67729 62.065624 197.98979Q61.58125 197.28667 60.83125 197.28667Q60.1125 197.28667 59.675 197.89604Q59.128124 198.67729 59.128124 200.80229ZM65.05 200.80229Q65.05 199.27104 65.3625 198.34917Q65.675 197.41167 66.28438 196.91167Q66.90938 196.41167 67.84688 196.41167Q68.53438 196.41167 69.05 196.69292Q69.58125 196.97417 69.925 197.50542Q70.26875 198.02104 70.45625 198.77104Q70.64375 199.52104 70.64375 200.80229Q70.64375 202.31792 70.33125 203.23979Q70.03438 204.16167 69.40938 204.67729Q68.8 205.17729 67.84688 205.17729Q66.6125 205.17729 65.89375 204.28667Q65.05 203.22417 65.05 200.80229ZM66.12813 200.80229Q66.12813 202.91167 66.62813 203.61479Q67.12813 204.31792 67.84688 204.31792Q68.58125 204.31792 69.06563 203.61479Q69.56563 202.91167 69.56563 200.80229Q69.56563 198.67729 69.06563 197.98979Q68.58125 197.28667 67.83125 197.28667Q67.1125 197.28667 66.675 197.89604Q66.12813 198.67729 66.12813 200.80229Z" fill-rule="nonzero"/><path fill="#000000" d="M55.01875 155.33L53.971874 155.33L53.971874 148.61125Q53.58125 148.97063 52.95625 149.34563Q52.346874 149.705 51.8625 149.87688L51.8625 148.86125Q52.7375 148.43938 53.39375 147.86125Q54.065624 147.2675 54.346874 146.705L55.01875 146.705L55.01875 155.33ZM58.05 153.08L59.159374 152.98625Q59.284374 153.79875 59.721874 154.205Q60.175 154.61125 60.815624 154.61125Q61.565624 154.61125 62.096874 154.03313Q62.628124 153.455 62.628124 152.5175Q62.628124 151.61125 62.1125 151.09563Q61.6125 150.56438 60.784374 150.56438Q60.284374 150.56438 59.8625 150.79875Q59.45625 151.03313 59.221874 151.3925L58.2375 151.2675L59.065624 146.86125L63.346874 146.86125L63.346874 147.86125L59.909374 147.86125L59.45625 150.17375Q60.221874 149.62688 61.065624 149.62688Q62.190624 149.62688 62.95625 150.40813Q63.7375 151.18938 63.7375 152.42375Q63.7375 153.58 63.065624 154.43938Q62.2375 155.47063 60.815624 155.47063Q59.64375 155.47063 58.89375 154.81438Q58.159374 154.15813 58.05 153.08ZM65.05 151.09563Q65.05 149.56438 65.3625 148.6425Q65.675 147.705 66.28438 147.205Q66.90938 146.705 67.84688 146.705Q68.53438 146.705 69.05 146.98625Q69.58125 147.2675 69.925 147.79875Q70.26875 148.31438 70.45625 149.06438Q70.64375 149.81438 70.64375 151.09563Q70.64375 152.61125 70.33125 153.53313Q70.03438 154.455 69.40938 154.97063Q68.8 155.47063 67.84688 155.47063Q66.6125 155.47063 65.89375 154.58Q65.05 153.5175 65.05 151.09563ZM66.12813 151.09563Q66.12813 153.205 66.62813 153.90813Q67.12813 154.61125 67.84688 154.61125Q68.58125 154.61125 69.06563 153.90813Q69.56563 153.205 69.56563 151.09563Q69.56563 148.97063 69.06563 148.28313Q68.58125 147.58 67.83125 147.58Q67.1125 147.58 66.675 148.18938Q66.12813 148.97063 66.12813 151.09563Z" fill-rule="nonzero"/><path fill="#000000" d="M56.596874 104.60771L56.596874 105.62334L50.909374 105.62334Q50.909374 105.24834 51.034374 104.88896Q51.253124 104.31084 51.721874 103.74834Q52.20625 103.18584 53.1125 102.45146Q54.51875 101.29521 55.003124 100.62334Q55.503124 99.95146 55.503124 99.35771Q55.503124 98.73271 55.05 98.31084Q54.596874 97.87334 53.878124 97.87334Q53.1125 97.87334 52.659374 98.32646Q52.20625 98.77959 52.190624 99.59209L51.1125 99.48271Q51.221874 98.26396 51.940624 97.63896Q52.675 96.99834 53.909374 96.99834Q55.14375 96.99834 55.8625 97.68584Q56.58125 98.37334 56.58125 99.38896Q56.58125 99.90459 56.3625 100.40459Q56.159374 100.88896 55.659374 101.45146Q55.175 101.99834 54.05 102.95146Q53.096874 103.74834 52.815624 104.04521Q52.55 104.32646 52.378124 104.60771L56.596874 104.60771ZM58.05 101.38896Q58.05 99.85771 58.3625 98.93584Q58.675 97.99834 59.284374 97.49834Q59.909374 96.99834 60.846874 96.99834Q61.534374 96.99834 62.05 97.27959Q62.58125 97.56084 62.925 98.09209Q63.26875 98.60771 63.45625 99.35771Q63.64375 100.10771 63.64375 101.38896Q63.64375 102.90459 63.33125 103.82646Q63.034374 104.74834 62.409374 105.26396Q61.8 105.76396 60.846874 105.76396Q59.6125 105.76396 58.89375 104.87334Q58.05 103.81084 58.05 101.38896ZM59.128124 101.38896Q59.128124 103.49834 59.628124 104.20146Q60.128124 104.90459 60.846874 104.90459Q61.58125 104.90459 62.065624 104.20146Q62.565624 103.49834 62.565624 101.38896Q62.565624 99.26396 62.065624 98.57646Q61.58125 97.87334 60.83125 97.87334Q60.1125 97.87334 59.675 98.48271Q59.128124 99.26396 59.128124 101.38896ZM65.05 101.38896Q65.05 99.85771 65.3625 98.93584Q65.675 97.99834 66.28438 97.49834Q66.90938 96.99834 67.84688 96.99834Q68.53438 96.99834 69.05 97.27959Q69.58125 97.56084 69.925 98.09209Q70.26875 98.60771 70.45625 99.35771Q70.64375 100.10771 70.64375 101.38896Q70.64375 102.90459 70.33125 103.82646Q70.03438 104.74834 69.40938 105.26396Q68.8 105.76396 67.84688 105.76396Q66.6125 105.76396 65.89375 104.87334Q65.05 103.81084 65.05 101.38896ZM66.12813 101.38896Q66.12813 103.49834 66.62813 104.20146Q67.12813 104.90459 67.84688 104.90459Q68.58125 104.90459 69.06563 104.20146Q69.56563 103.49834 69.56563 101.38896Q69.56563 99.26396 69.06563 98.57646Q68.58125 97.87334 67.83125 97.87334Q67.1125 97.87334 66.675 98.48271Q66.12813 99.26396 66.12813 101.38896Z" fill-rule="nonzero"/><path fill="#000000" d="M56.596874 54.901043L56.596874 55.916668L50.909374 55.916668Q50.909374 55.541668 51.034374 55.182293Q51.253124 54.604168 51.721874 54.041668Q52.20625 53.479168 53.1125 52.744793Q54.51875 51.588543 55.003124 50.916668Q55.503124 50.244793 55.503124 49.651043Q55.503124 49.026043 55.05 48.604168Q54.596874 48.166668 53.878124 48.166668Q53.1125 48.166668 52.659374 48.619793Q52.20625 49.072918 52.190624 49.885418L51.1125 49.776043Q51.221874 48.557293 51.940624 47.932293Q52.675 47.291668 53.909374 47.291668Q55.14375 47.291668 55.8625 47.979168Q56.58125 48.666668 56.58125 49.682293Q56.58125 50.197918 56.3625 50.697918Q56.159374 51.182293 55.659374 51.744793Q55.175 52.291668 54.05 53.244793Q53.096874 54.041668 52.815624 54.338543Q52.55 54.619793 52.378124 54.901043L56.596874 54.901043ZM58.05 53.666668L59.159374 53.572918Q59.284374 54.385418 59.721874 54.791668Q60.175 55.197918 60.815624 55.197918Q61.565624 55.197918 62.096874 54.619793Q62.628124 54.041668 62.628124 53.104168Q62.628124 52.197918 62.1125 51.682293Q61.6125 51.151043 60.784374 51.151043Q60.284374 51.151043 59.8625 51.385418Q59.45625 51.619793 59.221874 51.979168L58.2375 51.854168L59.065624 47.447918L63.346874 47.447918L63.346874 48.447918L59.909374 48.447918L59.45625 50.760418Q60.221874 50.213543 61.065624 50.213543Q62.190624 50.213543 62.95625 50.994793Q63.7375 51.776043 63.7375 53.010418Q63.7375 54.166668 63.065624 55.026043Q62.2375 56.057293 60.815624 56.057293Q59.64375 56.057293 58.89375 55.401043Q58.159374 54.744793 58.05 53.666668ZM65.05 51.682293Q65.05 50.151043 65.3625 49.229168Q65.675 48.291668 66.28438 47.791668Q66.90938 47.291668 67.84688 47.291668Q68.53438 47.291668 69.05 47.572918Q69.58125 47.854168 69.925 48.385418Q70.26875 48.901043 70.45625 49.651043Q70.64375 50.401043 70.64375 51.682293Q70.64375 53.197918 70.33125 54.119793Q70.03438 55.041668 69.40938 55.557293Q68.8 56.057293 67.84688 56.057293Q66.6125 56.057293 65.89375 55.166668Q65.05 54.104168 65.05 51.682293ZM66.12813 51.682293Q66.12813 53.791668 66.62813 54.494793Q67.12813 55.197918 67.84688 55.197918Q68.58125 55.197918 69.06563 54.494793Q69.56563 53.791668 69.56563 51.682293Q69.56563 49.557293 69.06563 48.869793Q68.58125 48.166668 67.83125 48.166668Q67.1125 48.166668 66.675 48.776043Q66.12813 49.557293 66.12813 51.682293Z" fill-rule="nonzero"/><path fill="#000000" d="M139.56935 315.2L140.67873 315.10626Q140.80373 315.91876 141.24123 316.325Q141.69435 316.73126 142.33498 316.73126Q143.08498 316.73126 143.61623 316.15314Q144.14748 315.575 144.14748 314.6375Q144.14748 313.73126 143.63185 313.21564Q143.13185 312.6844 142.30373 312.6844Q141.80373 312.6844 141.38185 312.91876Q140.9756 313.15314 140.74123 313.5125L139.75685 313.3875L140.58498 308.98126L144.86623 308.98126L144.86623 309.98126L141.42873 309.98126L140.9756 312.29376Q141.74123 311.7469 142.58498 311.7469Q143.70998 311.7469 144.4756 312.52814Q145.25685 313.3094 145.25685 314.54376Q145.25685 315.7 144.58498 316.5594Q143.75685 317.59064 142.33498 317.59064Q141.1631 317.59064 140.4131 316.9344Q139.67873 316.27814 139.56935 315.2Z" fill-rule="nonzero"/><path fill="#000000" d="M221.3123 317.45L220.26543 317.45L220.26543 310.73126Q219.8748 311.09064 219.2498 311.46564Q218.64043 311.825 218.15605 311.9969L218.15605 310.98126Q219.03105 310.5594 219.6873 309.98126Q220.35918 309.3875 220.64043 308.825L221.3123 308.825L221.3123 317.45ZM224.34355 313.21564Q224.34355 311.6844 224.65605 310.7625Q224.96855 309.825 225.57793 309.325Q226.20293 308.825 227.14043 308.825Q227.82793 308.825 228.34355 309.10626Q228.8748 309.3875 229.21855 309.91876Q229.5623 310.4344 229.7498 311.1844Q229.9373 311.9344 229.9373 313.21564Q229.9373 314.73126 229.6248 315.65314Q229.32793 316.575 228.70293 317.09064Q228.09355 317.59064 227.14043 317.59064Q225.90605 317.59064 225.1873 316.7Q224.34355 315.6375 224.34355 313.21564ZM225.42168 313.21564Q225.42168 315.325 225.92168 316.02814Q226.42168 316.73126 227.14043 316.73126Q227.8748 316.73126 228.35918 316.02814Q228.85918 315.325 228.85918 313.21564Q228.85918 311.09064 228.35918 310.40314Q227.8748 309.7 227.1248 309.7Q226.40605 309.7 225.96855 310.3094Q225.42168 311.09064 225.42168 313.21564Z" fill-rule="nonzero"/><path fill="#000000" d="M302.5865 317.45L301.5396 317.45L301.5396 310.73126Q301.149 311.09064 300.524 311.46564Q299.9146 311.825 299.43024 311.9969L299.43024 310.98126Q300.30524 310.5594 300.9615 309.98126Q301.63336 309.3875 301.9146 308.825L302.5865 308.825L302.5865 317.45ZM305.61774 315.2L306.7271 315.10626Q306.8521 315.91876 307.2896 316.325Q307.74274 316.73126 308.38336 316.73126Q309.13336 316.73126 309.6646 316.15314Q310.19586 315.575 310.19586 314.6375Q310.19586 313.73126 309.68024 313.21564Q309.18024 312.6844 308.3521 312.6844Q307.8521 312.6844 307.43024 312.91876Q307.024 313.15314 306.7896 313.5125L305.80524 313.3875L306.63336 308.98126L310.9146 308.98126L310.9146 309.98126L307.4771 309.98126L307.024 312.29376Q307.7896 311.7469 308.63336 311.7469Q309.75836 311.7469 310.524 312.52814Q311.30524 313.3094 311.30524 314.54376Q311.30524 315.7 310.63336 316.5594Q309.80524 317.59064 308.38336 317.59064Q307.2115 317.59064 306.4615 316.9344Q305.7271 316.27814 305.61774 315.2Z" fill-rule="nonzero"/><path fill="#000000" d="M385.4388 316.4344L385.4388 317.45L379.7513 317.45Q379.7513 317.075 379.8763 316.71564Q380.09506 316.1375 380.5638 315.575Q381.0482 315.0125 381.95444 314.27814Q383.3607 313.1219 383.84506 312.45Q384.34506 311.77814 384.34506 311.1844Q384.34506 310.5594 383.89194 310.1375Q383.4388 309.7 382.72006 309.7Q381.95444 309.7 381.5013 310.15314Q381.0482 310.60626 381.03256 311.41876L379.95444 311.3094Q380.0638 310.09064 380.78256 309.46564Q381.51694 308.825 382.7513 308.825Q383.9857 308.825 384.70444 309.5125Q385.4232 310.2 385.4232 311.21564Q385.4232 311.73126 385.20444 312.23126Q385.0013 312.71564 384.5013 313.27814Q384.01694 313.825 382.89194 314.77814Q381.9388 315.575 381.65756 315.8719Q381.39194 316.15314 381.22006 316.4344L385.4388 316.4344ZM386.89194 313.21564Q386.89194 311.6844 387.20444 310.7625Q387.51694 309.825 388.1263 309.325Q388.7513 308.825 389.6888 308.825Q390.3763 308.825 390.89194 309.10626Q391.4232 309.3875 391.76694 309.91876Q392.1107 310.4344 392.2982 311.1844Q392.4857 311.9344 392.4857 313.21564Q392.4857 314.73126 392.1732 315.65314Q391.8763 316.575 391.2513 317.09064Q390.64194 317.59064 389.6888 317.59064Q388.45444 317.59064 387.7357 316.7Q386.89194 315.6375 386.89194 313.21564ZM387.97006 313.21564Q387.97006 315.325 388.47006 316.02814Q388.97006 316.73126 389.6888 316.73126Q390.4232 316.73126 390.90756 316.02814Q391.40756 315.325 391.40756 313.21564Q391.40756 311.09064 390.90756 310.40314Q390.4232 309.7 389.6732 309.7Q388.95444 309.7 388.51694 310.3094Q387.97006 311.09064 387.97006 313.21564Z" fill-rule="nonzero"/><path fill="#000000" d="M466.713 316.4344L466.713 317.45L461.0255 317.45Q461.0255 317.075 461.1505 316.71564Q461.36926 316.1375 461.838 315.575Q462.3224 315.0125 463.22864 314.27814Q464.6349 313.1219 465.11926 312.45Q465.61926 311.77814 465.61926 311.1844Q465.61926 310.5594 465.16614 310.1375Q464.713 309.7 463.99426 309.7Q463.22864 309.7 462.7755 310.15314Q462.3224 310.60626 462.30676 311.41876L461.22864 311.3094Q461.338 310.09064 462.05676 309.46564Q462.79114 308.825 464.0255 308.825Q465.2599 308.825 465.97864 309.5125Q466.6974 310.2 466.6974 311.21564Q466.6974 311.73126 466.47864 312.23126Q466.2755 312.71564 465.7755 313.27814Q465.29114 313.825 464.16614 314.77814Q463.213 315.575 462.93176 315.8719Q462.66614 316.15314 462.49426 316.4344L466.713 316.4344ZM468.16614 315.2L469.2755 315.10626Q469.4005 315.91876 469.838 316.325Q470.29114 316.73126 470.93176 316.73126Q471.68176 316.73126 472.213 316.15314Q472.74426 315.575 472.74426 314.6375Q472.74426 313.73126 472.22864 313.21564Q471.72864 312.6844 470.9005 312.6844Q470.4005 312.6844 469.97864 312.91876Q469.5724 313.15314 469.338 313.5125L468.35364 313.3875L469.18176 308.98126L473.463 308.98126L473.463 309.98126L470.0255 309.98126L469.5724 312.29376Q470.338 311.7469 471.18176 311.7469Q472.30676 311.7469 473.0724 312.52814Q473.85364 313.3094 473.85364 314.54376Q473.85364 315.7 473.18176 316.5594Q472.35364 317.59064 470.93176 317.59064Q469.7599 317.59064 469.0099 316.9344Q468.2755 316.27814 468.16614 315.2Z" fill-rule="nonzero"/><path fill="#000000" d="M542.4403 315.1844L543.5028 315.04376Q543.6747 315.9344 544.1122 316.34064Q544.5497 316.73126 545.1747 316.73126Q545.9247 316.73126 546.4403 316.21564Q546.95593 315.7 546.95593 314.9344Q546.95593 314.21564 546.47156 313.7469Q546.0028 313.2625 545.26843 313.2625Q544.97156 313.2625 544.51843 313.3875L544.64343 312.45Q544.7528 312.46564 544.8153 312.46564Q545.4872 312.46564 546.01843 312.1219Q546.5653 311.7625 546.5653 311.02814Q546.5653 310.45 546.1747 310.075Q545.78406 309.6844 545.15906 309.6844Q544.5497 309.6844 544.1278 310.075Q543.72156 310.46564 543.6122 311.23126L542.5497 311.04376Q542.7372 309.9969 543.4247 309.41876Q544.1122 308.825 545.1278 308.825Q545.83093 308.825 546.4247 309.1375Q547.01843 309.4344 547.33093 309.95Q547.64343 310.46564 547.64343 311.0594Q547.64343 311.60626 547.34656 312.075Q547.0497 312.52814 546.47156 312.79376Q547.22156 312.96564 547.64343 313.52814Q548.0653 314.075 548.0653 314.91876Q548.0653 316.04376 547.2372 316.825Q546.4247 317.60626 545.1747 317.60626Q544.0497 317.60626 543.2997 316.9344Q542.5497 316.2469 542.4403 315.1844ZM549.4403 313.21564Q549.4403 311.6844 549.7528 310.7625Q550.0653 309.825 550.6747 309.325Q551.2997 308.825 552.2372 308.825Q552.9247 308.825 553.4403 309.10626Q553.97156 309.3875 554.3153 309.91876Q554.65906 310.4344 554.84656 311.1844Q555.03406 311.9344 555.03406 313.21564Q555.03406 314.73126 554.72156 315.65314Q554.4247 316.575 553.7997 317.09064Q553.1903 317.59064 552.2372 317.59064Q551.0028 317.59064 550.28406 316.7Q549.4403 315.6375 549.4403 313.21564ZM550.51843 313.21564Q550.51843 315.325 551.01843 316.02814Q551.51843 316.73126 552.2372 316.73126Q552.97156 316.73126 553.45593 316.02814Q553.95593 315.325 553.95593 313.21564Q553.95593 311.09064 553.45593 310.40314Q552.97156 309.7 552.22156 309.7Q551.5028 309.7 551.0653 310.3094Q550.51843 311.09064 550.51843 313.21564Z" fill-rule="nonzero"/><path stroke="#4285f4" stroke-width="4.0" stroke-linecap="butt" d="M103.0 25.55L115.0 25.55" fill-rule="nonzero"/><path fill="#1a1a1a" d="M130.0625 26.534374L131.1875 26.83125Q130.82812 28.221874 129.90625 28.95625Q128.98438 29.690624 127.640625 29.690624Q126.25 29.690624 125.375 29.128124Q124.5 28.565624 124.046875 27.503124Q123.59375 26.425 123.59375 25.190624Q123.59375 23.846874 124.109375 22.846874Q124.625 21.846874 125.5625 21.33125Q126.515625 20.815624 127.65625 20.815624Q128.9375 20.815624 129.8125 21.471874Q130.70312 22.128124 131.04688 23.315624L129.92188 23.58125Q129.625 22.64375 129.04688 22.221874Q128.48438 21.784374 127.625 21.784374Q126.640625 21.784374 125.96875 22.26875Q125.3125 22.7375 125.03125 23.534374Q124.765625 24.33125 124.765625 25.190624Q124.765625 26.284374 125.078125 27.096874Q125.40625 27.909374 126.078125 28.315624Q126.75 28.721874 127.546875 28.721874Q128.5 28.721874 129.15625 28.175Q129.82812 27.628124 130.0625 26.534374ZM132.40625 26.440624Q132.40625 24.70625 133.35938 23.878124Q134.15625 23.190624 135.3125 23.190624Q136.59375 23.190624 137.40625 24.034374Q138.23438 24.8625 138.23438 26.346874Q138.23438 27.55 137.875 28.2375Q137.51562 28.925 136.8125 29.315624Q136.125 29.690624 135.3125 29.690624Q134.01562 29.690624 133.20312 28.8625Q132.40625 28.01875 132.40625 26.440624ZM133.48438 26.440624Q133.48438 27.628124 134.0 28.221874Q134.53125 28.815624 135.3125 28.815624Q136.10938 28.815624 136.625 28.221874Q137.14062 27.628124 137.14062 26.409374Q137.14062 25.253124 136.60938 24.659374Q136.09375 24.065624 135.3125 24.065624Q134.53125 24.065624 134.0 24.659374Q133.48438 25.2375 133.48438 26.440624ZM139.79688 29.55L139.79688 23.33125L140.73438 23.33125L140.73438 24.20625Q141.42188 23.190624 142.71875 23.190624Q143.28125 23.190624 143.75 23.39375Q144.23438 23.596874 144.46875 23.925Q144.70312 24.253124 144.79688 24.690624Q144.84375 24.9875 144.84375 25.721874L144.84375 29.55L143.79688 29.55L143.79688 25.76875Q143.79688 25.1125 143.67188 24.8Q143.54688 24.4875 143.23438 24.3Q142.92188 24.096874 142.5 24.096874Q141.82812 24.096874 141.32812 24.534374Q140.84375 24.95625 140.84375 26.14375L140.84375 29.55L139.79688 29.55ZM150.85938 27.26875L151.89062 27.409374Q151.71875 28.471874 151.01562 29.08125Q150.3125 29.690624 149.29688 29.690624Q148.01562 29.690624 147.23438 28.8625Q146.46875 28.01875 146.46875 26.45625Q146.46875 25.45625 146.79688 24.70625Q147.14062 23.940624 147.8125 23.565624Q148.5 23.190624 149.3125 23.190624Q150.3125 23.190624 150.95312 23.70625Q151.60938 24.20625 151.79688 25.159374L150.76562 25.315624Q150.625 24.690624 150.25 24.378124Q149.875 24.05 149.34375 24.05Q148.54688 24.05 148.04688 24.628124Q147.54688 25.190624 147.54688 26.425Q147.54688 27.690624 148.03125 28.253124Q148.51562 28.815624 149.28125 28.815624Q149.90625 28.815624 150.3125 28.440624Q150.73438 28.065624 150.85938 27.26875ZM156.875 29.55L156.875 28.628124Q156.14062 29.690624 154.89062 29.690624Q154.34375 29.690624 153.85938 29.4875Q153.39062 29.26875 153.15625 28.95625Q152.92188 28.628124 152.82812 28.159374Q152.76562 27.8625 152.76562 27.175L152.76562 23.33125L153.82812 23.33125L153.82812 26.784374Q153.82812 27.596874 153.89062 27.89375Q153.98438 28.3 154.29688 28.55Q154.625 28.784374 155.10938 28.784374Q155.57812 28.784374 155.98438 28.55Q156.40625 28.3 156.57812 27.878124Q156.76562 27.45625 156.76562 26.659374L156.76562 23.33125L157.8125 23.33125L157.8125 29.55L156.875 29.55ZM159.78125 29.55L159.78125 23.33125L160.73438 23.33125L160.73438 24.26875Q161.09375 23.6125 161.39062 23.409374Q161.70312 23.190624 162.07812 23.190624Q162.60938 23.190624 163.15625 23.51875L162.79688 24.503124Q162.40625 24.26875 162.03125 24.26875Q161.67188 24.26875 161.39062 24.4875Q161.125 24.690624 161.01562 25.065624Q160.82812 25.628124 160.82812 26.284374L160.82812 29.55L159.78125 29.55ZM163.78125 29.55L163.78125 23.33125L164.73438 23.33125L164.73438 24.26875Q165.09375 23.6125 165.39062 23.409374Q165.70312 23.190624 166.07812 23.190624Q166.60938 23.190624 167.15625 23.51875L166.79688 24.503124Q166.40625 24.26875 166.03125 24.26875Q165.67188 24.26875 165.39062 24.4875Q165.125 24.690624 165.01562 25.065624Q164.82812 25.628124 164.82812 26.284374L164.82812 29.55L163.78125 29.55ZM172.04688 27.55L173.14062 27.675Q172.89062 28.628124 172.1875 29.159374Q171.48438 29.690624 170.40625 29.690624Q169.04688 29.690624 168.23438 28.846874Q167.4375 28.003124 167.4375 26.4875Q167.4375 24.925 168.25 24.065624Q169.0625 23.190624 170.34375 23.190624Q171.59375 23.190624 172.375 24.034374Q173.17188 24.878124 173.17188 26.425Q173.17188 26.51875 173.17188 26.70625L168.53125 26.70625Q168.59375 27.7375 169.10938 28.284374Q169.625 28.815624 170.40625 28.815624Q170.98438 28.815624 171.39062 28.51875Q171.8125 28.20625 172.04688 27.55ZM168.59375 25.846874L172.0625 25.846874Q172.0 25.05 171.67188 24.659374Q171.15625 24.05 170.35938 24.05Q169.625 24.05 169.125 24.534374Q168.64062 25.01875 168.59375 25.846874ZM174.79688 29.55L174.79688 23.33125L175.73438 23.33125L175.73438 24.20625Q176.42188 23.190624 177.71875 23.190624Q178.28125 23.190624 178.75 23.39375Q179.23438 23.596874 179.46875 23.925Q179.70312 24.253124 179.79688 24.690624Q179.84375 24.9875 179.84375 25.721874L179.84375 29.55L178.79688 29.55L178.79688 25.76875Q178.79688 25.1125 178.67188 24.8Q178.54688 24.4875 178.23438 24.3Q177.92188 24.096874 177.5 24.096874Q176.82812 24.096874 176.32812 24.534374Q175.84375 24.95625 175.84375 26.14375L175.84375 29.55L174.79688 29.55ZM184.09375 28.6125L184.25 29.534374Q183.79688 29.628124 183.45312 29.628124Q182.875 29.628124 182.5625 29.45625Q182.25 29.26875 182.10938 28.971874Q181.98438 28.675 181.98438 27.721874L181.98438 24.14375L181.21875 24.14375L181.21875 23.33125L181.98438 23.33125L181.98438 21.784374L183.03125 21.159374L183.03125 23.33125L184.09375 23.33125L184.09375 24.14375L183.03125 24.14375L183.03125 27.784374Q183.03125 28.2375 183.07812 28.3625Q183.14062 28.4875 183.26562 28.565624Q183.39062 28.64375 183.625 28.64375Q183.8125 28.64375 184.09375 28.6125ZM187.54688 26.784374L188.60938 26.690624Q188.6875 27.346874 188.96875 27.753124Q189.25 28.159374 189.82812 28.425Q190.42188 28.675 191.15625 28.675Q191.79688 28.675 192.29688 28.4875Q192.79688 28.284374 193.03125 27.95625Q193.28125 27.6125 193.28125 27.221874Q193.28125 26.815624 193.04688 26.51875Q192.8125 26.20625 192.28125 26.003124Q191.92188 25.8625 190.73438 25.58125Q189.5625 25.3 189.09375 25.05Q188.46875 24.721874 188.17188 24.253124Q187.875 23.76875 187.875 23.175Q187.875 22.534374 188.23438 21.971874Q188.60938 21.39375 189.3125 21.1125Q190.03125 20.815624 190.89062 20.815624Q191.84375 20.815624 192.57812 21.128124Q193.3125 21.425 193.70312 22.034374Q194.09375 22.628124 194.125 23.378124L193.03125 23.45625Q192.9375 22.64375 192.42188 22.2375Q191.92188 21.815624 190.9375 21.815624Q189.90625 21.815624 189.4375 22.190624Q188.96875 22.565624 188.96875 23.096874Q188.96875 23.565624 189.29688 23.8625Q189.625 24.159374 191.0 24.471874Q192.39062 24.784374 192.90625 25.01875Q193.65625 25.378124 194.01562 25.909374Q194.375 26.425 194.375 27.128124Q194.375 27.815624 193.98438 28.425Q193.59375 29.01875 192.85938 29.3625Q192.125 29.690624 191.20312 29.690624Q190.03125 29.690624 189.23438 29.3625Q188.45312 29.01875 188.0 28.33125Q187.5625 27.64375 187.54688 26.784374ZM200.04688 27.55L201.14062 27.675Q200.89062 28.628124 200.1875 29.159374Q199.48438 29.690624 198.40625 29.690624Q197.04688 29.690624 196.23438 28.846874Q195.4375 28.003124 195.4375 26.4875Q195.4375 24.925 196.25 24.065624Q197.0625 23.190624 198.34375 23.190624Q199.59375 23.190624 200.375 24.034374Q201.17188 24.878124 201.17188 26.425Q201.17188 26.51875 201.17188 26.70625L196.53125 26.70625Q196.59375 27.7375 197.10938 28.284374Q197.625 28.815624 198.40625 28.815624Q198.98438 28.815624 199.39062 28.51875Q199.8125 28.20625 200.04688 27.55ZM196.59375 25.846874L200.0625 25.846874Q200.0 25.05 199.67188 24.659374Q199.15625 24.05 198.35938 24.05Q197.625 24.05 197.125 24.534374Q196.64062 25.01875 196.59375 25.846874ZM205.09375 28.6125L205.25 29.534374Q204.79688 29.628124 204.45312 29.628124Q203.875 29.628124 203.5625 29.45625Q203.25 29.26875 203.10938 28.971874Q202.98438 28.675 202.98438 27.721874L202.98438 24.14375L202.21875 24.14375L202.21875 23.33125L202.98438 23.33125L202.98438 21.784374L204.03125 21.159374L204.03125 23.33125L205.09375 23.33125L205.09375 24.14375L204.03125 24.14375L204.03125 27.784374Q204.03125 28.2375 204.07812 28.3625Q204.14062 28.4875 204.26562 28.565624Q204.39062 28.64375 204.625 28.64375Q204.8125 28.64375 205.09375 28.6125Z" fill-rule="nonzero"/><path stroke="#ea4335" stroke-width="4.0" stroke-linecap="butt" d="M221.0 25.55L233.0 25.55" fill-rule="nonzero"/><path fill="#1a1a1a" d="M248.0625 26.534374L249.1875 26.83125Q248.82812 28.221874 247.90625 28.95625Q246.98438 29.690624 245.64062 29.690624Q244.25 29.690624 243.375 29.128124Q242.5 28.565624 242.04688 27.503124Q241.59375 26.425 241.59375 25.190624Q241.59375 23.846874 242.10938 22.846874Q242.625 21.846874 243.5625 21.33125Q244.51562 20.815624 245.65625 20.815624Q246.9375 20.815624 247.8125 21.471874Q248.70312 22.128124 249.04688 23.315624L247.92188 23.58125Q247.625 22.64375 247.04688 22.221874Q246.48438 21.784374 245.625 21.784374Q244.64062 21.784374 243.96875 22.26875Q243.3125 22.7375 243.03125 23.534374Q242.76562 24.33125 242.76562 25.190624Q242.76562 26.284374 243.07812 27.096874Q243.40625 27.909374 244.07812 28.315624Q244.75 28.721874 245.54688 28.721874Q246.5 28.721874 247.15625 28.175Q247.82812 27.628124 248.0625 26.534374ZM250.40625 26.440624Q250.40625 24.70625 251.35938 23.878124Q252.15625 23.190624 253.3125 23.190624Q254.59375 23.190624 255.40625 24.034374Q256.23438 24.8625 256.23438 26.346874Q256.23438 27.55 255.875 28.2375Q255.51562 28.925 254.8125 29.315624Q254.125 29.690624 253.3125 29.690624Q252.01562 29.690624 251.20312 28.8625Q250.40625 28.01875 250.40625 26.440624ZM251.48438 26.440624Q251.48438 27.628124 252.0 28.221874Q252.53125 28.815624 253.3125 28.815624Q254.10938 28.815624 254.625 28.221874Q255.14062 27.628124 255.14062 26.409374Q255.14062 25.253124 254.60938 24.659374Q254.09375 24.065624 253.3125 24.065624Q252.53125 24.065624 252.0 24.659374Q251.48438 25.2375 251.48438 26.440624ZM257.79688 29.55L257.79688 23.33125L258.73438 23.33125L258.73438 24.20625Q259.42188 23.190624 260.71875 23.190624Q261.28125 23.190624 261.75 23.39375Q262.23438 23.596874 262.46875 23.925Q262.70312 24.253124 262.79688 24.690624Q262.84375 24.9875 262.84375 25.721874L262.84375 29.55L261.79688 29.55L261.79688 25.76875Q261.79688 25.1125 261.67188 24.8Q261.54688 24.4875 261.23438 24.3Q260.92188 24.096874 260.5 24.096874Q259.82812 24.096874 259.32812 24.534374Q258.84375 24.95625 258.84375 26.14375L258.84375 29.55L257.79688 29.55ZM268.85938 27.26875L269.89062 27.409374Q269.71875 28.471874 269.01562 29.08125Q268.3125 29.690624 267.29688 29.690624Q266.01562 29.690624 265.23438 28.8625Q264.46875 28.01875 264.46875 26.45625Q264.46875 25.45625 264.79688 24.70625Q265.14062 23.940624 265.8125 23.565624Q266.5 23.190624 267.3125 23.190624Q268.3125 23.190624 268.95312 23.70625Q269.60938 24.20625 269.79688 25.159374L268.76562 25.315624Q268.625 24.690624 268.25 24.378124Q267.875 24.05 267.34375 24.05Q266.54688 24.05 266.04688 24.628124Q265.54688 25.190624 265.54688 26.425Q265.54688 27.690624 266.03125 28.253124Q266.51562 28.815624 267.28125 28.815624Q267.90625 28.815624 268.3125 28.440624Q268.73438 28.065624 268.85938 27.26875ZM274.875 29.55L274.875 28.628124Q274.14062 29.690624 272.89062 29.690624Q272.34375 29.690624 271.85938 29.4875Q271.39062 29.26875 271.15625 28.95625Q270.92188 28.628124 270.82812 28.159374Q270.76562 27.8625 270.76562 27.175L270.76562 23.33125L271.82812 23.33125L271.82812 26.784374Q271.82812 27.596874 271.89062 27.89375Q271.98438 28.3 272.29688 28.55Q272.625 28.784374 273.10938 28.784374Q273.57812 28.784374 273.98438 28.55Q274.40625 28.3 274.57812 27.878124Q274.76562 27.45625 274.76562 26.659374L274.76562 23.33125L275.8125 23.33125L275.8125 29.55L274.875 29.55ZM277.78125 29.55L277.78125 23.33125L278.73438 23.33125L278.73438 24.26875Q279.09375 23.6125 279.39062 23.409374Q279.70312 23.190624 280.07812 23.190624Q280.60938 23.190624 281.15625 23.51875L280.79688 24.503124Q280.40625 24.26875 280.03125 24.26875Q279.67188 24.26875 279.39062 24.4875Q279.125 24.690624 279.01562 25.065624Q278.82812 25.628124 278.82812 26.284374L278.82812 29.55L277.78125 29.55ZM281.78125 29.55L281.78125 23.33125L282.73438 23.33125L282.73438 24.26875Q283.09375 23.6125 283.39062 23.409374Q283.70312 23.190624 284.07812 23.190624Q284.60938 23.190624 285.15625 23.51875L284.79688 24.503124Q284.40625 24.26875 284.03125 24.26875Q283.67188 24.26875 283.39062 24.4875Q283.125 24.690624 283.01562 25.065624Q282.82812 25.628124 282.82812 26.284374L282.82812 29.55L281.78125 29.55ZM290.04688 27.55L291.14062 27.675Q290.89062 28.628124 290.1875 29.159374Q289.48438 29.690624 288.40625 29.690624Q287.04688 29.690624 286.23438 28.846874Q285.4375 28.003124 285.4375 26.4875Q285.4375 24.925 286.25 24.065624Q287.0625 23.190624 288.34375 23.190624Q289.59375 23.190624 290.375 24.034374Q291.17188 24.878124 291.17188 26.425Q291.17188 26.51875 291.17188 26.70625L286.53125 26.70625Q286.59375 27.7375 287.10938 28.284374Q287.625 28.815624 288.40625 28.815624Q288.98438 28.815624 289.39062 28.51875Q289.8125 28.20625 290.04688 27.55ZM286.59375 25.846874L290.0625 25.846874Q290.0 25.05 289.67188 24.659374Q289.15625 24.05 288.35938 24.05Q287.625 24.05 287.125 24.534374Q286.64062 25.01875 286.59375 25.846874ZM292.79688 29.55L292.79688 23.33125L293.73438 23.33125L293.73438 24.20625Q294.42188 23.190624 295.71875 23.190624Q296.28125 23.190624 296.75 23.39375Q297.23438 23.596874 297.46875 23.925Q297.70312 24.253124 297.79688 24.690624Q297.84375 24.9875 297.84375 25.721874L297.84375 29.55L296.79688 29.55L296.79688 25.76875Q296.79688 25.1125 296.67188 24.8Q296.54688 24.4875 296.23438 24.3Q295.92188 24.096874 295.5 24.096874Q294.82812 24.096874 294.32812 24.534374Q293.84375 24.95625 293.84375 26.14375L293.84375 29.55L292.79688 29.55ZM302.09375 28.6125L302.25 29.534374Q301.79688 29.628124 301.45312 29.628124Q300.875 29.628124 300.5625 29.45625Q300.25 29.26875 300.10938 28.971874Q299.98438 28.675 299.98438 27.721874L299.98438 24.14375L299.21875 24.14375L299.21875 23.33125L299.98438 23.33125L299.98438 21.784374L301.03125 21.159374L301.03125 23.33125L302.09375 23.33125L302.09375 24.14375L301.03125 24.14375L301.03125 27.784374Q301.03125 28.2375 301.07812 28.3625Q301.14062 28.4875 301.26562 28.565624Q301.39062 28.64375 301.625 28.64375Q301.8125 28.64375 302.09375 28.6125ZM309.95312 26.175L309.95312 25.175L313.57812 25.159374L313.57812 28.346874Q312.75 29.01875 311.85938 29.3625Q310.96875 29.690624 310.03125 29.690624Q308.76562 29.690624 307.71875 29.159374Q306.6875 28.6125 306.15625 27.596874Q305.64062 26.565624 305.64062 25.3Q305.64062 24.034374 306.15625 22.95625Q306.6875 21.8625 307.67188 21.346874Q308.65625 20.815624 309.9375 20.815624Q310.875 20.815624 311.625 21.1125Q312.375 21.409374 312.79688 21.95625Q313.23438 22.4875 313.45312 23.3625L312.4375 23.64375Q312.23438 22.9875 311.9375 22.6125Q311.65625 22.2375 311.125 22.01875Q310.59375 21.784374 309.95312 21.784374Q309.17188 21.784374 308.59375 22.01875Q308.03125 22.253124 307.67188 22.64375Q307.32812 23.034374 307.14062 23.503124Q306.8125 24.3 306.8125 25.221874Q306.8125 26.378124 307.20312 27.159374Q307.60938 27.925 308.35938 28.3Q309.10938 28.675 309.96875 28.675Q310.70312 28.675 311.40625 28.39375Q312.10938 28.096874 312.46875 27.784374L312.46875 26.175L309.95312 26.175ZM319.04688 27.55L320.14062 27.675Q319.89062 28.628124 319.1875 29.159374Q318.48438 29.690624 317.40625 29.690624Q316.04688 29.690624 315.23438 28.846874Q314.4375 28.003124 314.4375 26.4875Q314.4375 24.925 315.25 24.065624Q316.0625 23.190624 317.34375 23.190624Q318.59375 23.190624 319.375 24.034374Q320.17188 24.878124 320.17188 26.425Q320.17188 26.51875 320.17188 26.70625L315.53125 26.70625Q315.59375 27.7375 316.10938 28.284374Q316.625 28.815624 317.40625 28.815624Q317.98438 28.815624 318.39062 28.51875Q318.8125 28.20625 319.04688 27.55ZM315.59375 25.846874L319.0625 25.846874Q319.0 25.05 318.67188 24.659374Q318.15625 24.05 317.35938 24.05Q316.625 24.05 316.125 24.534374Q315.64062 25.01875 315.59375 25.846874ZM324.09375 28.6125L324.25 29.534374Q323.79688 29.628124 323.45312 29.628124Q322.875 29.628124 322.5625 29.45625Q322.25 29.26875 322.10938 28.971874Q321.98438 28.675 321.98438 27.721874L321.98438 24.14375L321.21875 24.14375L321.21875 23.33125L321.98438 23.33125L321.98438 21.784374L323.03125 21.159374L323.03125 23.33125L324.09375 23.33125L324.09375 24.14375L323.03125 24.14375L323.03125 27.784374Q323.03125 28.2375 323.07812 28.3625Q323.14062 28.4875 323.26562 28.565624Q323.39062 28.64375 323.625 28.64375Q323.8125 28.64375 324.09375 28.6125Z" fill-rule="nonzero"/><path stroke="#fbbc04" stroke-width="4.0" stroke-linecap="butt" d="M340.0 25.55L352.0 25.55" fill-rule="nonzero"/><path fill="#1a1a1a" d="M360.54688 26.784374L361.60938 26.690624Q361.6875 27.346874 361.96875 27.753124Q362.25 28.159374 362.82812 28.425Q363.42188 28.675 364.15625 28.675Q364.79688 28.675 365.29688 28.4875Q365.79688 28.284374 366.03125 27.95625Q366.28125 27.6125 366.28125 27.221874Q366.28125 26.815624 366.04688 26.51875Q365.8125 26.20625 365.28125 26.003124Q364.92188 25.8625 363.73438 25.58125Q362.5625 25.3 362.09375 25.05Q361.46875 24.721874 361.17188 24.253124Q360.875 23.76875 360.875 23.175Q360.875 22.534374 361.23438 21.971874Q361.60938 21.39375 362.3125 21.1125Q363.03125 20.815624 363.89062 20.815624Q364.84375 20.815624 365.57812 21.128124Q366.3125 21.425 366.70312 22.034374Q367.09375 22.628124 367.125 23.378124L366.03125 23.45625Q365.9375 22.64375 365.42188 22.2375Q364.92188 21.815624 363.9375 21.815624Q362.90625 21.815624 362.4375 22.190624Q361.96875 22.565624 361.96875 23.096874Q361.96875 23.565624 362.29688 23.8625Q362.625 24.159374 364.0 24.471874Q365.39062 24.784374 365.90625 25.01875Q366.65625 25.378124 367.01562 25.909374Q367.375 26.425 367.375 27.128124Q367.375 27.815624 366.98438 28.425Q366.59375 29.01875 365.85938 29.3625Q365.125 29.690624 364.20312 29.690624Q363.03125 29.690624 362.23438 29.3625Q361.45312 29.01875 361.0 28.33125Q360.5625 27.64375 360.54688 26.784374ZM368.75 31.940624L368.625 30.95625Q368.96875 31.05 369.23438 31.05Q369.57812 31.05 369.78125 30.925Q370.0 30.815624 370.14062 30.6125Q370.23438 30.440624 370.46875 29.815624Q370.48438 29.7375 370.5625 29.565624L368.1875 23.33125L369.32812 23.33125L370.625 26.925Q370.875 27.6125 371.07812 28.378124Q371.26562 27.64375 371.51562 26.95625L372.84375 23.33125L373.89062 23.33125L371.53125 29.659374Q371.14062 30.675 370.9375 31.065624Q370.65625 31.596874 370.28125 31.83125Q369.92188 32.08125 369.42188 32.08125Q369.125 32.08125 368.75 31.940624ZM373.79688 29.55L373.79688 23.33125L374.73438 23.33125L374.73438 24.20625Q375.42188 23.190624 376.71875 23.190624Q377.28125 23.190624 377.75 23.39375Q378.23438 23.596874 378.46875 23.925Q378.70312 24.253124 378.79688 24.690624Q378.84375 24.9875 378.84375 25.721874L378.84375 29.55L377.79688 29.55L377.79688 25.76875Q377.79688 25.1125 377.67188 24.8Q377.54688 24.4875 377.23438 24.3Q376.92188 24.096874 376.5 24.096874Q375.82812 24.096874 375.32812 24.534374Q374.84375 24.95625 374.84375 26.14375L374.84375 29.55L373.79688 29.55ZM384.85938 27.26875L385.89062 27.409374Q385.71875 28.471874 385.01562 29.08125Q384.3125 29.690624 383.29688 29.690624Q382.01562 29.690624 381.23438 28.8625Q380.46875 28.01875 380.46875 26.45625Q380.46875 25.45625 380.79688 24.70625Q381.14062 23.940624 381.8125 23.565624Q382.5 23.190624 383.3125 23.190624Q384.3125 23.190624 384.95312 23.70625Q385.60938 24.20625 385.79688 25.159374L384.76562 25.315624Q384.625 24.690624 384.25 24.378124Q383.875 24.05 383.34375 24.05Q382.54688 24.05 382.04688 24.628124Q381.54688 25.190624 381.54688 26.425Q381.54688 27.690624 382.03125 28.253124Q382.51562 28.815624 383.28125 28.815624Q383.90625 28.815624 384.3125 28.440624Q384.73438 28.065624 384.85938 27.26875ZM387.09375 29.55L387.09375 28.346874L388.29688 28.346874L388.29688 29.55L387.09375 29.55ZM392.54688 26.784374L393.60938 26.690624Q393.6875 27.346874 393.96875 27.753124Q394.25 28.159374 394.82812 28.425Q395.42188 28.675 396.15625 28.675Q396.79688 28.675 397.29688 28.4875Q397.79688 28.284374 398.03125 27.95625Q398.28125 27.6125 398.28125 27.221874Q398.28125 26.815624 398.04688 26.51875Q397.8125 26.20625 397.28125 26.003124Q396.92188 25.8625 395.73438 25.58125Q394.5625 25.3 394.09375 25.05Q393.46875 24.721874 393.17188 24.253124Q392.875 23.76875 392.875 23.175Q392.875 22.534374 393.23438 21.971874Q393.60938 21.39375 394.3125 21.1125Q395.03125 20.815624 395.89062 20.815624Q396.84375 20.815624 397.57812 21.128124Q398.3125 21.425 398.70312 22.034374Q399.09375 22.628124 399.125 23.378124L398.03125 23.45625Q397.9375 22.64375 397.42188 22.2375Q396.92188 21.815624 395.9375 21.815624Q394.90625 21.815624 394.4375 22.190624Q393.96875 22.565624 393.96875 23.096874Q393.96875 23.565624 394.29688 23.8625Q394.625 24.159374 396.0 24.471874Q397.39062 24.784374 397.90625 25.01875Q398.65625 25.378124 399.01562 25.909374Q399.375 26.425 399.375 27.128124Q399.375 27.815624 398.98438 28.425Q398.59375 29.01875 397.85938 29.3625Q397.125 29.690624 396.20312 29.690624Q395.03125 29.690624 394.23438 29.3625Q393.45312 29.01875 393.0 28.33125Q392.5625 27.64375 392.54688 26.784374ZM405.04688 27.55L406.14062 27.675Q405.89062 28.628124 405.1875 29.159374Q404.48438 29.690624 403.40625 29.690624Q402.04688 29.690624 401.23438 28.846874Q400.4375 28.003124 400.4375 26.4875Q400.4375 24.925 401.25 24.065624Q402.0625 23.190624 403.34375 23.190624Q404.59375 23.190624 405.375 24.034374Q406.17188 24.878124 406.17188 26.425Q406.17188 26.51875 406.17188 26.70625L401.53125 26.70625Q401.59375 27.7375 402.10938 28.284374Q402.625 28.815624 403.40625 28.815624Q403.98438 28.815624 404.39062 28.51875Q404.8125 28.20625 405.04688 27.55ZM401.59375 25.846874L405.0625 25.846874Q405.0 25.05 404.67188 24.659374Q404.15625 24.05 403.35938 24.05Q402.625 24.05 402.125 24.534374Q401.64062 25.01875 401.59375 25.846874ZM410.09375 28.6125L410.25 29.534374Q409.79688 29.628124 409.45312 29.628124Q408.875 29.628124 408.5625 29.45625Q408.25 29.26875 408.10938 28.971874Q407.98438 28.675 407.98438 27.721874L407.98438 24.14375L407.21875 24.14375L407.21875 23.33125L407.98438 23.33125L407.98438 21.784374L409.03125 21.159374L409.03125 23.33125L410.09375 23.33125L410.09375 24.14375L409.03125 24.14375L409.03125 27.784374Q409.03125 28.2375 409.07812 28.3625Q409.14062 28.4875 409.26562 28.565624Q409.39062 28.64375 409.625 28.64375Q409.8125 28.64375 410.09375 28.6125Z" fill-rule="nonzero"/><path stroke="#34a853" stroke-width="4.0" stroke-linecap="butt" d="M426.0 25.55L438.0 25.55" fill-rule="nonzero"/><path fill="#1a1a1a" d="M446.54688 26.784374L447.60938 26.690624Q447.6875 27.346874 447.96875 27.753124Q448.25 28.159374 448.82812 28.425Q449.42188 28.675 450.15625 28.675Q450.79688 28.675 451.29688 28.4875Q451.79688 28.284374 452.03125 27.95625Q452.28125 27.6125 452.28125 27.221874Q452.28125 26.815624 452.04688 26.51875Q451.8125 26.20625 451.28125 26.003124Q450.92188 25.8625 449.73438 25.58125Q448.5625 25.3 448.09375 25.05Q447.46875 24.721874 447.17188 24.253124Q446.875 23.76875 446.875 23.175Q446.875 22.534374 447.23438 21.971874Q447.60938 21.39375 448.3125 21.1125Q449.03125 20.815624 449.89062 20.815624Q450.84375 20.815624 451.57812 21.128124Q452.3125 21.425 452.70312 22.034374Q453.09375 22.628124 453.125 23.378124L452.03125 23.45625Q451.9375 22.64375 451.42188 22.2375Q450.92188 21.815624 449.9375 21.815624Q448.90625 21.815624 448.4375 22.190624Q447.96875 22.565624 447.96875 23.096874Q447.96875 23.565624 448.29688 23.8625Q448.625 24.159374 450.0 24.471874Q451.39062 24.784374 451.90625 25.01875Q452.65625 25.378124 453.01562 25.909374Q453.375 26.425 453.375 27.128124Q453.375 27.815624 452.98438 28.425Q452.59375 29.01875 451.85938 29.3625Q451.125 29.690624 450.20312 29.690624Q449.03125 29.690624 448.23438 29.3625Q447.45312 29.01875 447.0 28.33125Q446.5625 27.64375 446.54688 26.784374ZM454.75 31.940624L454.625 30.95625Q454.96875 31.05 455.23438 31.05Q455.57812 31.05 455.78125 30.925Q456.0 30.815624 456.14062 30.6125Q456.23438 30.440624 456.46875 29.815624Q456.48438 29.7375 456.5625 29.565624L454.1875 23.33125L455.32812 23.33125L456.625 26.925Q456.875 27.6125 457.07812 28.378124Q457.26562 27.64375 457.51562 26.95625L458.84375 23.33125L459.89062 23.33125L457.53125 29.659374Q457.14062 30.675 456.9375 31.065624Q456.65625 31.596874 456.28125 31.83125Q455.92188 32.08125 455.42188 32.08125Q455.125 32.08125 454.75 31.940624ZM459.79688 29.55L459.79688 23.33125L460.73438 23.33125L460.73438 24.20625Q461.42188 23.190624 462.71875 23.190624Q463.28125 23.190624 463.75 23.39375Q464.23438 23.596874 464.46875 23.925Q464.70312 24.253124 464.79688 24.690624Q464.84375 24.9875 464.84375 25.721874L464.84375 29.55L463.79688 29.55L463.79688 25.76875Q463.79688 25.1125 463.67188 24.8Q463.54688 24.4875 463.23438 24.3Q462.92188 24.096874 462.5 24.096874Q461.82812 24.096874 461.32812 24.534374Q460.84375 24.95625 460.84375 26.14375L460.84375 29.55L459.79688 29.55ZM470.85938 27.26875L471.89062 27.409374Q471.71875 28.471874 471.01562 29.08125Q470.3125 29.690624 469.29688 29.690624Q468.01562 29.690624 467.23438 28.8625Q466.46875 28.01875 466.46875 26.45625Q466.46875 25.45625 466.79688 24.70625Q467.14062 23.940624 467.8125 23.565624Q468.5 23.190624 469.3125 23.190624Q470.3125 23.190624 470.95312 23.70625Q471.60938 24.20625 471.79688 25.159374L470.76562 25.315624Q470.625 24.690624 470.25 24.378124Q469.875 24.05 469.34375 24.05Q468.54688 24.05 468.04688 24.628124Q467.54688 25.190624 467.54688 26.425Q467.54688 27.690624 468.03125 28.253124Q468.51562 28.815624 469.28125 28.815624Q469.90625 28.815624 470.3125 28.440624Q470.73438 28.065624 470.85938 27.26875ZM473.09375 29.55L473.09375 28.346874L474.29688 28.346874L474.29688 29.55L473.09375 29.55ZM482.95312 26.175L482.95312 25.175L486.57812 25.159374L486.57812 28.346874Q485.75 29.01875 484.85938 29.3625Q483.96875 29.690624 483.03125 29.690624Q481.76562 29.690624 480.71875 29.159374Q479.6875 28.6125 479.15625 27.596874Q478.64062 26.565624 478.64062 25.3Q478.64062 24.034374 479.15625 22.95625Q479.6875 21.8625 480.67188 21.346874Q481.65625 20.815624 482.9375 20.815624Q483.875 20.815624 484.625 21.1125Q485.375 21.409374 485.79688 21.95625Q486.23438 22.4875 486.45312 23.3625L485.4375 23.64375Q485.23438 22.9875 484.9375 22.6125Q484.65625 22.2375 484.125 22.01875Q483.59375 21.784374 482.95312 21.784374Q482.17188 21.784374 481.59375 22.01875Q481.03125 22.253124 480.67188 22.64375Q480.32812 23.034374 480.14062 23.503124Q479.8125 24.3 479.8125 25.221874Q479.8125 26.378124 480.20312 27.159374Q480.60938 27.925 481.35938 28.3Q482.10938 28.675 482.96875 28.675Q483.70312 28.675 484.40625 28.39375Q485.10938 28.096874 485.46875 27.784374L485.46875 26.175L482.95312 26.175ZM492.04688 27.55L493.14062 27.675Q492.89062 28.628124 492.1875 29.159374Q491.48438 29.690624 490.40625 29.690624Q489.04688 29.690624 488.23438 28.846874Q487.4375 28.003124 487.4375 26.4875Q487.4375 24.925 488.25 24.065624Q489.0625 23.190624 490.34375 23.190624Q491.59375 23.190624 492.375 24.034374Q493.17188 24.878124 493.17188 26.425Q493.17188 26.51875 493.17188 26.70625L488.53125 26.70625Q488.59375 27.7375 489.10938 28.284374Q489.625 28.815624 490.40625 28.815624Q490.98438 28.815624 491.39062 28.51875Q491.8125 28.20625 492.04688 27.55ZM488.59375 25.846874L492.0625 25.846874Q492.0 25.05 491.67188 24.659374Q491.15625 24.05 490.35938 24.05Q489.625 24.05 489.125 24.534374Q488.64062 25.01875 488.59375 25.846874ZM497.09375 28.6125L497.25 29.534374Q496.79688 29.628124 496.45312 29.628124Q495.875 29.628124 495.5625 29.45625Q495.25 29.26875 495.10938 28.971874Q494.98438 28.675 494.98438 27.721874L494.98438 24.14375L494.21875 24.14375L494.21875 23.33125L494.98438 23.33125L494.98438 21.784374L496.03125 21.159374L496.03125 23.33125L497.09375 23.33125L497.09375 24.14375L496.03125 24.14375L496.03125 27.784374Q496.03125 28.2375 496.07812 28.3625Q496.14062 28.4875 496.26562 28.565624Q496.39062 28.64375 496.625 28.64375Q496.8125 28.64375 497.09375 28.6125Z" fill-rule="nonzero"/></svg>